<svg id="Capa_1" data-name="Capa 1" xmlns="http://www.w3.org/2000/svg" viewBox="0 0 730.95 242.54"><defs><style>.cls-1,.cls-2,.cls-4{fill:#fff;}.cls-2{font-size:46.67px;font-family:SourceSansPro-Regular, Source Sans Pro;letter-spacing:0.43em;}.cls-3{letter-spacing:0.4em;}.cls-4{font-size:82.17px;font-family:SourceSansPro-Bold, Source Sans Pro;font-weight:700;letter-spacing:0.09em;}.cls-5{letter-spacing:0.07em;}.cls-6{letter-spacing:0.07em;}.cls-7{letter-spacing:0.08em;}</style></defs><polygon class="cls-1" points="142.63 60.97 75 129.54 7.38 60.97 0 65.91 0 168.04 26 192.54 26 128.29 63 165.87 63 231.12 75 242.54 87 231.79 87 166.54 124 128.29 124 192.54 150 168.04 150 65.91 142.63 60.97"/><circle class="cls-1" cx="131.65" cy="55.54" r="2.08"/><circle class="cls-1" cx="125.29" cy="61.9" r="2.31"/><circle class="cls-1" cx="118.92" cy="68.26" r="2.31"/><circle class="cls-1" cx="112.56" cy="74.63" r="2.77"/><circle class="cls-1" cx="106.19" cy="80.99" r="3.24"/><circle class="cls-1" cx="99.83" cy="87.36" r="2.78"/><circle class="cls-1" cx="93.47" cy="93.72" r="2.78"/><circle class="cls-1" cx="87.1" cy="100.08" r="3.24"/><circle class="cls-1" cx="80.74" cy="106.45" r="3.24"/><circle class="cls-1" cx="74.12" cy="112.81" r="2.32"/><circle class="cls-1" cx="125.29" cy="49.17" r="4.63"/><circle class="cls-1" cx="118.92" cy="55.54" r="4.62"/><circle class="cls-1" cx="112.56" cy="61.9" r="4.63"/><circle class="cls-1" cx="106.19" cy="68.26" r="4.63"/><circle class="cls-1" cx="99.83" cy="74.63" r="4.63"/><circle class="cls-1" cx="93.47" cy="80.99" r="4.63"/><circle class="cls-1" cx="87.1" cy="87.36" r="4.62"/><circle class="cls-1" cx="80.74" cy="93.72" r="4.63"/><circle class="cls-1" cx="74.37" cy="100.08" r="4.62"/><circle class="cls-1" cx="68.01" cy="106.45" r="4.62"/><circle class="cls-1" cx="118.92" cy="42.81" r="4.63"/><circle class="cls-1" cx="112.56" cy="49.17" r="4.62"/><circle class="cls-1" cx="106.19" cy="55.54" r="4.63"/><circle class="cls-1" cx="99.83" cy="61.9" r="4.63"/><circle class="cls-1" cx="93.47" cy="68.26" r="4.63"/><circle class="cls-1" cx="87.1" cy="74.63" r="4.63"/><circle class="cls-1" cx="80.74" cy="80.99" r="4.62"/><circle class="cls-1" cx="74.37" cy="87.36" r="4.63"/><circle class="cls-1" cx="68.01" cy="93.72" r="4.62"/><circle class="cls-1" cx="61.65" cy="100.08" r="4.62"/><circle class="cls-1" cx="112.56" cy="36.44" r="4.62"/><circle class="cls-1" cx="99.83" cy="49.17" r="4.62"/><circle class="cls-1" cx="93.47" cy="55.54" r="4.62"/><circle class="cls-1" cx="80.74" cy="68.26" r="4.63"/><circle class="cls-1" cx="74.37" cy="74.63" r="4.62"/><circle class="cls-1" cx="68.01" cy="80.99" r="4.63"/><circle class="cls-1" cx="61.65" cy="87.36" r="4.62"/><circle class="cls-1" cx="55.28" cy="93.72" r="4.63"/><circle class="cls-1" cx="80.74" cy="55.54" r="4.63"/><circle class="cls-1" cx="74.37" cy="61.9" r="4.63"/><circle class="cls-1" cx="68.01" cy="68.26" r="4.62"/><circle class="cls-1" cx="61.65" cy="74.63" r="4.63"/><circle class="cls-1" cx="55.28" cy="80.99" r="4.62"/><circle class="cls-1" cx="48.92" cy="87.36" r="4.63"/><circle class="cls-1" cx="80.74" cy="42.81" r="4.63"/><circle class="cls-1" cx="74.38" cy="49.17" r="4.63"/><circle class="cls-1" cx="68.01" cy="55.54" r="4.63"/><circle class="cls-1" cx="61.65" cy="61.9" r="4.62"/><circle class="cls-1" cx="55.28" cy="68.26" r="4.63"/><circle class="cls-1" cx="48.92" cy="74.63" r="4.62"/><circle class="cls-1" cx="42.56" cy="80.99" r="4.63"/><circle class="cls-1" cx="74.38" cy="36.44" r="4.63"/><circle class="cls-1" cx="68.01" cy="42.81" r="4.63"/><circle class="cls-1" cx="61.65" cy="49.17" r="4.63"/><circle class="cls-1" cx="55.28" cy="55.54" r="4.62"/><circle class="cls-1" cx="48.92" cy="61.9" r="4.63"/><circle class="cls-1" cx="42.56" cy="68.26" r="4.62"/><circle class="cls-1" cx="36.19" cy="74.63" r="4.63"/><circle class="cls-1" cx="68.01" cy="30.08" r="4.63"/><circle class="cls-1" cx="61.65" cy="36.44" r="4.63"/><circle class="cls-1" cx="55.28" cy="42.81" r="4.62"/><circle class="cls-1" cx="48.92" cy="49.17" r="4.63"/><circle class="cls-1" cx="42.56" cy="55.54" r="4.62"/><circle class="cls-1" cx="36.19" cy="61.9" r="4.63"/><circle class="cls-1" cx="29.83" cy="68.26" r="4.62"/><circle class="cls-1" cx="74.38" cy="10.99" r="4.63"/><circle class="cls-1" cx="68.01" cy="17.35" r="4.62"/><circle class="cls-1" cx="61.65" cy="23.72" r="4.63"/><circle class="cls-1" cx="55.28" cy="30.08" r="4.63"/><circle class="cls-1" cx="48.92" cy="36.44" r="4.63"/><circle class="cls-1" cx="42.56" cy="42.81" r="4.63"/><circle class="cls-1" cx="36.19" cy="49.17" r="4.62"/><circle class="cls-1" cx="29.83" cy="55.54" r="4.63"/><circle class="cls-1" cx="23.46" cy="61.9" r="4.62"/><circle class="cls-1" cx="68.01" cy="4.62" r="4.63"/><circle class="cls-1" cx="61.65" cy="10.99" r="4.62"/><circle class="cls-1" cx="55.28" cy="17.35" r="4.63"/><circle class="cls-1" cx="48.92" cy="23.72" r="4.63"/><circle class="cls-1" cx="42.56" cy="30.08" r="4.63"/><circle class="cls-1" cx="36.19" cy="36.44" r="4.63"/><circle class="cls-1" cx="29.83" cy="42.81" r="4.62"/><circle class="cls-1" cx="23.46" cy="49.17" r="4.63"/><circle class="cls-1" cx="17.1" cy="55.54" r="4.62"/><text class="cls-2" transform="translate(207.58 188.46) scale(1.15 1)">SO<tspan class="cls-3" x="95.3" y="0">L</tspan><tspan x="136.33" y="0">UCIONES</tspan></text><text class="cls-4" transform="translate(201.08 114.98) scale(1.1 1)">M<tspan class="cls-5" x="69.52" y="0">e</tspan><tspan class="cls-6" x="117.59" y="0">t</tspan><tspan class="cls-7" x="155.06" y="0">aristics</tspan></text><rect class="cls-1" x="208" y="136.54" width="515"/></svg>