<svg id="Capa_1" data-name="Capa 1" xmlns="http://www.w3.org/2000/svg" viewBox="0 0 723 242.54"><defs><style>.cls-1{fill:#fff;}</style></defs><polygon class="cls-1" points="142.63 60.97 75 129.54 7.38 60.97 0 65.91 0 168.04 26 192.54 26 128.29 63 165.87 63 231.12 75 242.54 87 231.79 87 166.54 124 128.29 124 192.54 150 168.04 150 65.91 142.63 60.97"/><circle class="cls-1" cx="131.65" cy="55.54" r="2.08"/><circle class="cls-1" cx="125.29" cy="61.9" r="2.31"/><circle class="cls-1" cx="118.92" cy="68.26" r="2.31"/><circle class="cls-1" cx="112.56" cy="74.63" r="2.77"/><circle class="cls-1" cx="106.19" cy="80.99" r="3.24"/><circle class="cls-1" cx="99.83" cy="87.36" r="2.78"/><circle class="cls-1" cx="93.47" cy="93.72" r="2.78"/><circle class="cls-1" cx="87.1" cy="100.08" r="3.24"/><circle class="cls-1" cx="80.74" cy="106.45" r="3.24"/><circle class="cls-1" cx="74.12" cy="112.81" r="2.32"/><circle class="cls-1" cx="125.29" cy="49.17" r="4.63"/><circle class="cls-1" cx="118.92" cy="55.54" r="4.62"/><circle class="cls-1" cx="112.56" cy="61.9" r="4.63"/><circle class="cls-1" cx="106.19" cy="68.26" r="4.63"/><circle class="cls-1" cx="99.83" cy="74.63" r="4.63"/><circle class="cls-1" cx="93.47" cy="80.99" r="4.63"/><circle class="cls-1" cx="87.1" cy="87.36" r="4.62"/><circle class="cls-1" cx="80.74" cy="93.72" r="4.63"/><circle class="cls-1" cx="74.37" cy="100.08" r="4.62"/><circle class="cls-1" cx="68.01" cy="106.45" r="4.62"/><circle class="cls-1" cx="118.92" cy="42.81" r="4.63"/><circle class="cls-1" cx="112.56" cy="49.17" r="4.62"/><circle class="cls-1" cx="106.19" cy="55.54" r="4.63"/><circle class="cls-1" cx="99.83" cy="61.9" r="4.63"/><circle class="cls-1" cx="93.47" cy="68.26" r="4.63"/><circle class="cls-1" cx="87.1" cy="74.63" r="4.63"/><circle class="cls-1" cx="80.74" cy="80.99" r="4.62"/><circle class="cls-1" cx="74.37" cy="87.36" r="4.63"/><circle class="cls-1" cx="68.01" cy="93.72" r="4.62"/><circle class="cls-1" cx="61.65" cy="100.08" r="4.62"/><circle class="cls-1" cx="112.56" cy="36.44" r="4.62"/><circle class="cls-1" cx="99.83" cy="49.17" r="4.62"/><circle class="cls-1" cx="93.47" cy="55.54" r="4.62"/><circle class="cls-1" cx="80.74" cy="68.26" r="4.63"/><circle class="cls-1" cx="74.37" cy="74.63" r="4.62"/><circle class="cls-1" cx="68.01" cy="80.99" r="4.63"/><circle class="cls-1" cx="61.65" cy="87.36" r="4.62"/><circle class="cls-1" cx="55.28" cy="93.72" r="4.63"/><circle class="cls-1" cx="80.74" cy="55.54" r="4.63"/><circle class="cls-1" cx="74.37" cy="61.9" r="4.63"/><circle class="cls-1" cx="68.01" cy="68.26" r="4.62"/><circle class="cls-1" cx="61.65" cy="74.63" r="4.63"/><circle class="cls-1" cx="55.28" cy="80.99" r="4.62"/><circle class="cls-1" cx="48.92" cy="87.36" r="4.63"/><circle class="cls-1" cx="80.74" cy="42.81" r="4.63"/><circle class="cls-1" cx="74.38" cy="49.17" r="4.63"/><circle class="cls-1" cx="68.01" cy="55.54" r="4.63"/><circle class="cls-1" cx="61.65" cy="61.9" r="4.62"/><circle class="cls-1" cx="55.28" cy="68.26" r="4.63"/><circle class="cls-1" cx="48.92" cy="74.63" r="4.62"/><circle class="cls-1" cx="42.56" cy="80.99" r="4.63"/><circle class="cls-1" cx="74.38" cy="36.44" r="4.63"/><circle class="cls-1" cx="68.01" cy="42.81" r="4.63"/><circle class="cls-1" cx="61.65" cy="49.17" r="4.63"/><circle class="cls-1" cx="55.28" cy="55.54" r="4.62"/><circle class="cls-1" cx="48.92" cy="61.9" r="4.63"/><circle class="cls-1" cx="42.56" cy="68.26" r="4.62"/><circle class="cls-1" cx="36.19" cy="74.63" r="4.63"/><circle class="cls-1" cx="68.01" cy="30.08" r="4.63"/><circle class="cls-1" cx="61.65" cy="36.44" r="4.63"/><circle class="cls-1" cx="55.28" cy="42.81" r="4.62"/><circle class="cls-1" cx="48.92" cy="49.17" r="4.63"/><circle class="cls-1" cx="42.56" cy="55.54" r="4.62"/><circle class="cls-1" cx="36.19" cy="61.9" r="4.63"/><circle class="cls-1" cx="29.83" cy="68.26" r="4.62"/><circle class="cls-1" cx="74.38" cy="10.99" r="4.63"/><circle class="cls-1" cx="68.01" cy="17.35" r="4.62"/><circle class="cls-1" cx="61.65" cy="23.72" r="4.63"/><circle class="cls-1" cx="55.28" cy="30.08" r="4.63"/><circle class="cls-1" cx="48.92" cy="36.44" r="4.63"/><circle class="cls-1" cx="42.56" cy="42.81" r="4.63"/><circle class="cls-1" cx="36.19" cy="49.17" r="4.62"/><circle class="cls-1" cx="29.83" cy="55.54" r="4.63"/><circle class="cls-1" cx="23.46" cy="61.9" r="4.62"/><circle class="cls-1" cx="68.01" cy="4.62" r="4.63"/><circle class="cls-1" cx="61.65" cy="10.99" r="4.62"/><circle class="cls-1" cx="55.28" cy="17.35" r="4.63"/><circle class="cls-1" cx="48.92" cy="23.72" r="4.63"/><circle class="cls-1" cx="42.56" cy="30.08" r="4.63"/><circle class="cls-1" cx="36.19" cy="36.44" r="4.63"/><circle class="cls-1" cx="29.83" cy="42.81" r="4.62"/><circle class="cls-1" cx="23.46" cy="49.17" r="4.63"/><circle class="cls-1" cx="17.1" cy="55.54" r="4.62"/><path class="cls-1" d="M227.43,191.25a14.7,14.7,0,0,0,9.74,3.83c4.63,0,7.37-2,7.37-5s-2.58-4.1-5.92-5.41l-5.06-1.91c-3.28-1.22-7.16-3.41-7.16-7.89,0-4.67,4.74-8.12,11.14-8.12a15.57,15.57,0,0,1,10.39,3.78l-2.37,2.52a12.25,12.25,0,0,0-8-2.9c-4,0-6.61,1.73-6.61,4.48,0,2.94,3.12,4.06,5.86,5.09l5.06,1.87c4.09,1.54,7.27,3.64,7.27,8.17,0,4.85-4.63,8.73-12.06,8.73A18.33,18.33,0,0,1,224.74,194Z" transform="translate(-15 -9.46)"/><path class="cls-1" d="M276.66,182.48c0-9.81,6.25-15.73,15.13-15.73s15.07,6,15.07,15.73-6.25,16-15.07,16S276.66,192.32,276.66,182.48Zm25.57,0c0-7.61-4.15-12.33-10.44-12.33s-10.5,4.72-10.5,12.33,4.15,12.6,10.5,12.6S302.23,190.13,302.23,182.48Z" transform="translate(-15 -9.46)"/><path class="cls-1" d="M337.15,167.31h4.52v27.3h15.39v3.32H337.15Z" transform="translate(-15 -9.46)"/><path class="cls-1" d="M384.29,167.31h4.52v18.06c0,7.37,3.6,9.71,8.18,9.71s8.39-2.34,8.39-9.71V167.31h4.31v18c0,9.84-5.49,13.21-12.7,13.21s-12.7-3.37-12.7-13.21Z" transform="translate(-15 -9.46)"/><path class="cls-1" d="M455.59,166.75a13.92,13.92,0,0,1,9.63,3.78L462.69,173a10.05,10.05,0,0,0-7.05-2.85c-6.72,0-11.19,4.76-11.19,12.37s4.25,12.56,11,12.56a11,11,0,0,0,8.07-3.41l2.53,2.38a14.4,14.4,0,0,1-10.71,4.44c-8.88,0-15.5-5.89-15.5-15.87S446.55,166.75,455.59,166.75Z" transform="translate(-15 -9.46)"/><path class="cls-1" d="M495.3,167.31h4.52v30.62H495.3Z" transform="translate(-15 -9.46)"/><path class="cls-1" d="M530.11,182.48c0-9.81,6.25-15.73,15.13-15.73s15.07,6,15.07,15.73-6.25,16-15.07,16S530.11,192.32,530.11,182.48Zm25.57,0c0-7.61-4.15-12.33-10.44-12.33s-10.5,4.72-10.5,12.33,4.15,12.6,10.5,12.6S555.68,190.13,555.68,182.48Z" transform="translate(-15 -9.46)"/><path class="cls-1" d="M590.6,167.31h4.63L608,186.54l3.82,6.34h.21c-.21-3.08-.59-6.53-.59-9.75V167.31h4.25v30.62H611.1l-12.75-19.28-3.82-6.3h-.22c.22,3.08.54,6.34.54,9.57v16H590.6Z" transform="translate(-15 -9.46)"/><path class="cls-1" d="M648.12,167.31h20.35v3.26H652.64v9.62H666v3.31H652.64v11.11H669v3.32H648.12Z" transform="translate(-15 -9.46)"/><path class="cls-1" d="M699.35,191.25a14.72,14.72,0,0,0,9.74,3.83c4.63,0,7.38-2,7.38-5s-2.59-4.1-5.92-5.41l-5.06-1.91c-3.29-1.22-7.16-3.41-7.16-7.89,0-4.67,4.73-8.12,11.14-8.12a15.59,15.59,0,0,1,10.39,3.78l-2.37,2.52a12.27,12.27,0,0,0-8-2.9c-4,0-6.62,1.73-6.62,4.48,0,2.94,3.12,4.06,5.87,5.09l5,1.87c4.09,1.54,7.27,3.64,7.27,8.17,0,4.85-4.63,8.73-12.06,8.73A18.35,18.35,0,0,1,696.66,194Z" transform="translate(-15 -9.46)"/><path class="cls-1" d="M222.93,70.87h14L246.79,95l3.51,9.36h.36L254.18,95l9.54-24.08h14v53.57H265.34V104.81c0-5.26,1.08-13.07,1.72-18.25h-.37L261.92,99l-9.09,20.79h-5.32l-9-20.79-4.69-12.41h-.36c.63,5.18,1.71,13,1.71,18.25v19.63H222.93Z" transform="translate(-15 -9.46)"/><path class="cls-1" d="M316.59,82.7c12.7,0,19,8.47,19,19.56a21.81,21.81,0,0,1-.54,5.09H308.3c1.17,6.17,5.68,8.88,11.62,8.88a19.36,19.36,0,0,0,9.64-2.71l4.41,7.31a31.26,31.26,0,0,1-15.85,4.6c-12.79,0-22.6-7.89-22.6-21.36A20.89,20.89,0,0,1,316.59,82.7Zm7.74,17.18c0-4.69-2.16-8-7.47-8-4.14,0-7.75,2.54-8.65,8Z" transform="translate(-15 -9.46)"/><path class="cls-1" d="M352.61,93.14h-6.12v-9l6.84-.49,1.54-10.85h11V83.69h10.72v9.45H365.85v16.35c0,4.6,2.25,6.49,5.77,6.49a13.71,13.71,0,0,0,4.23-.82l2.07,8.79a34.84,34.84,0,0,1-9.91,1.48c-11.07,0-15.4-6.33-15.4-15.78Z" transform="translate(-15 -9.46)"/><path class="cls-1" d="M415.39,98.23c-.27-3.61-2.26-5.91-7-5.91-3.78,0-7.56,1.39-11.89,3.69l-4.68-8a39.51,39.51,0,0,1,19.09-5.34c11.44,0,17.74,5.92,17.74,18.41v23.33h-10.8l-1-4.19h-.27c-3.79,3-8,5.18-13.06,5.18-8.11,0-13.24-5.42-13.24-12.33C390.26,104.56,397.73,99.88,415.39,98.23ZM408,116.06c3.06,0,5-1.31,7.39-3.45v-7.15c-9.46,1.15-12.52,3.62-12.52,6.74C402.87,114.83,404.85,116.06,408,116.06Z" transform="translate(-15 -9.46)"/><path class="cls-1" d="M447.63,83.69h10.81l.9,7.15h.36c3.24-5.51,8.1-8.14,12.69-8.14a14,14,0,0,1,5.32.82L475.55,94a18.2,18.2,0,0,0-4.87-.66c-3.33,0-7.47,2-9.81,7.48v23.66H447.63Z" transform="translate(-15 -9.46)"/><path class="cls-1" d="M490.05,71.36c0-3.69,3.24-6.24,7.65-6.24s7.66,2.55,7.66,6.24-3.15,6.33-7.66,6.33S490.05,75.06,490.05,71.36Zm1.08,12.33h13.24v40.75H491.13Z" transform="translate(-15 -9.46)"/><path class="cls-1" d="M525.62,112.2c4,2.8,7.74,4.27,11.53,4.27,4,0,5.67-1.31,5.67-3.45,0-2.71-4.5-3.94-9.1-5.58-5.4-1.89-11.79-5.26-11.79-12,0-7.56,6.75-12.74,17.11-12.74a27.21,27.21,0,0,1,15.76,5.18l-5.95,7.23c-3.24-2.14-6.3-3.45-9.45-3.45-3.42,0-5,1.15-5,3.2,0,2.63,4.15,3.62,8.74,5.18,5.67,1.89,12.07,4.77,12.07,12.24s-6.4,13.15-18.37,13.15a30.54,30.54,0,0,1-17.11-5.67Z" transform="translate(-15 -9.46)"/><path class="cls-1" d="M573,93.14h-6.12v-9l6.84-.49,1.53-10.85h11V83.69H597v9.45H586.23v16.35c0,4.6,2.25,6.49,5.76,6.49a13.83,13.83,0,0,0,4.24-.82L598.3,124a34.9,34.9,0,0,1-9.91,1.48c-11.08,0-15.4-6.33-15.4-15.78Z" transform="translate(-15 -9.46)"/><path class="cls-1" d="M612.26,71.36c0-3.69,3.24-6.24,7.65-6.24s7.66,2.55,7.66,6.24-3.15,6.33-7.66,6.33S612.26,75.06,612.26,71.36Zm1.08,12.33h13.24v40.75H613.34Z" transform="translate(-15 -9.46)"/><path class="cls-1" d="M666.47,82.7a18.94,18.94,0,0,1,13.06,4.69l-6,7.47a10.11,10.11,0,0,0-6.22-2.38c-6.39,0-10.44,4.52-10.44,11.59s4.23,11.58,10,11.58a13.52,13.52,0,0,0,8-3l5.31,7.65a24.54,24.54,0,0,1-14.86,5.09c-12.43,0-22.06-7.81-22.06-21.36S654.13,82.7,666.47,82.7Z" transform="translate(-15 -9.46)"/><path class="cls-1" d="M697.54,112.2c4.06,2.8,7.75,4.27,11.53,4.27,4,0,5.67-1.31,5.67-3.45,0-2.71-4.5-3.94-9.09-5.58-5.4-1.89-11.8-5.26-11.8-12,0-7.56,6.75-12.74,17.11-12.74a27.19,27.19,0,0,1,15.76,5.18l-5.94,7.23c-3.24-2.14-6.31-3.45-9.46-3.45-3.42,0-5,1.15-5,3.2,0,2.63,4.14,3.62,8.73,5.18,5.68,1.89,12.07,4.77,12.07,12.24s-6.39,13.15-18.37,13.15a30.56,30.56,0,0,1-17.11-5.67Z" transform="translate(-15 -9.46)"/><rect class="cls-1" x="208" y="136.54" width="515"/></svg>