<?xml version="1.0" encoding="utf-8"?>
<!-- Generator: Adobe Illustrator 25.0.0, SVG Export Plug-In . SVG Version: 6.00 Build 0)  -->
<svg version="1.1" id="Capa_1" xmlns="http://www.w3.org/2000/svg" xmlns:xlink="http://www.w3.org/1999/xlink" x="0px" y="0px"
	 viewBox="0 0 587 260" style="enable-background:new 0 0 587 260;" xml:space="preserve">
<style type="text/css">
	.st0{fill:#0072BC;}
	.st1{fill:#29ABE2;}
	.st2{font-family:'SourceSansPro-Regular';}
	.st3{font-size:33.825px;}
	.st4{letter-spacing:13.88;}
	.st5{font-family:'SourceSansPro-Bold';}
	.st6{font-size:59.3079px;}
	.st7{letter-spacing:4.56;}
</style>
<polygon id="XMLID_34_" class="st0" points="152.62,70.44 85,139 17.38,70.44 10,75.38 10,177.5 36,202 36,137.75 73,175.33 
	73,240.58 85,252 97,241.25 97,176 134,137.75 134,202 160,177.5 160,75.38 "/>
<g id="XMLID_28_">
	<g id="XMLID_245_">
		<g id="XMLID_264_">
			<circle id="XMLID_265_" class="st1" cx="141.65" cy="65" r="2.08"/>
		</g>
		<g id="XMLID_262_">
			<circle id="XMLID_263_" class="st1" cx="135.29" cy="71.36" r="2.31"/>
		</g>
		<g id="XMLID_260_">
			<circle id="XMLID_261_" class="st1" cx="128.92" cy="77.73" r="2.31"/>
		</g>
		<g id="XMLID_258_">
			<circle id="XMLID_259_" class="st1" cx="122.56" cy="84.09" r="2.78"/>
		</g>
		<g id="XMLID_256_">
			<circle id="XMLID_257_" class="st1" cx="116.19" cy="90.46" r="3.24"/>
		</g>
		<g id="XMLID_254_">
			<circle id="XMLID_255_" class="st1" cx="109.83" cy="96.82" r="2.78"/>
		</g>
		<g id="XMLID_252_">
			<circle id="XMLID_253_" class="st1" cx="103.47" cy="103.18" r="2.78"/>
		</g>
		<g id="XMLID_250_">
			<circle id="XMLID_251_" class="st1" cx="97.1" cy="109.55" r="3.24"/>
		</g>
		<g id="XMLID_248_">
			<circle id="XMLID_249_" class="st1" cx="90.74" cy="115.91" r="3.24"/>
		</g>
		<g id="XMLID_246_">
			<circle id="XMLID_247_" class="st1" cx="84.12" cy="122.28" r="2.32"/>
		</g>
	</g>
	<g id="XMLID_224_">
		<g id="XMLID_243_">
			<circle id="XMLID_244_" class="st1" cx="135.29" cy="58.64" r="4.62"/>
		</g>
		<g id="XMLID_241_">
			<circle id="XMLID_242_" class="st1" cx="128.92" cy="65" r="4.62"/>
		</g>
		<g id="XMLID_239_">
			<circle id="XMLID_240_" class="st1" cx="122.56" cy="71.36" r="4.62"/>
		</g>
		<g id="XMLID_237_">
			<circle id="XMLID_238_" class="st1" cx="116.19" cy="77.73" r="4.62"/>
		</g>
		<g id="XMLID_235_">
			<circle id="XMLID_236_" class="st1" cx="109.83" cy="84.09" r="4.62"/>
		</g>
		<g id="XMLID_233_">
			<circle id="XMLID_234_" class="st1" cx="103.47" cy="90.46" r="4.62"/>
		</g>
		<g id="XMLID_231_">
			<circle id="XMLID_232_" class="st1" cx="97.1" cy="96.82" r="4.62"/>
		</g>
		<g id="XMLID_229_">
			<circle id="XMLID_230_" class="st1" cx="90.74" cy="103.18" r="4.62"/>
		</g>
		<g id="XMLID_227_">
			<circle id="XMLID_228_" class="st1" cx="84.38" cy="109.55" r="4.62"/>
		</g>
		<g id="XMLID_225_">
			<circle id="XMLID_226_" class="st1" cx="78.01" cy="115.91" r="4.62"/>
		</g>
	</g>
	<g id="XMLID_203_">
		<g id="XMLID_222_">
			<circle id="XMLID_223_" class="st1" cx="128.92" cy="52.27" r="4.62"/>
		</g>
		<g id="XMLID_220_">
			<circle id="XMLID_221_" class="st1" cx="122.56" cy="58.64" r="4.62"/>
		</g>
		<g id="XMLID_218_">
			<circle id="XMLID_219_" class="st1" cx="116.19" cy="65" r="4.62"/>
		</g>
		<g id="XMLID_216_">
			<circle id="XMLID_217_" class="st1" cx="109.83" cy="71.36" r="4.62"/>
		</g>
		<g id="XMLID_214_">
			<circle id="XMLID_215_" class="st1" cx="103.47" cy="77.73" r="4.62"/>
		</g>
		<g id="XMLID_212_">
			<circle id="XMLID_213_" class="st1" cx="97.1" cy="84.09" r="4.62"/>
		</g>
		<g id="XMLID_210_">
			<circle id="XMLID_211_" class="st1" cx="90.74" cy="90.46" r="4.62"/>
		</g>
		<g id="XMLID_208_">
			<circle id="XMLID_209_" class="st1" cx="84.38" cy="96.82" r="4.62"/>
		</g>
		<g id="XMLID_206_">
			<circle id="XMLID_207_" class="st1" cx="78.01" cy="103.18" r="4.62"/>
		</g>
		<g id="XMLID_204_">
			<circle id="XMLID_205_" class="st1" cx="71.65" cy="109.55" r="4.62"/>
		</g>
	</g>
	<g id="XMLID_182_">
		<g id="XMLID_201_">
			<circle id="XMLID_202_" class="st1" cx="122.56" cy="45.91" r="4.62"/>
		</g>
		<g id="XMLID_197_">
			<circle id="XMLID_198_" class="st1" cx="109.83" cy="58.64" r="4.62"/>
		</g>
		<g id="XMLID_195_">
			<circle id="XMLID_196_" class="st1" cx="103.47" cy="65" r="4.62"/>
		</g>
		<g id="XMLID_191_">
			<circle id="XMLID_192_" class="st1" cx="90.74" cy="77.73" r="4.62"/>
		</g>
		<g id="XMLID_189_">
			<circle id="XMLID_190_" class="st1" cx="84.38" cy="84.09" r="4.62"/>
		</g>
		<g id="XMLID_187_">
			<circle id="XMLID_188_" class="st1" cx="78.01" cy="90.46" r="4.62"/>
		</g>
		<g id="XMLID_185_">
			<circle id="XMLID_186_" class="st1" cx="71.65" cy="96.82" r="4.62"/>
		</g>
		<g id="XMLID_183_">
			<circle id="XMLID_184_" class="st1" cx="65.28" cy="103.18" r="4.62"/>
		</g>
	</g>
	<g id="XMLID_144_">
		<g id="XMLID_155_">
			<circle id="XMLID_156_" class="st1" cx="90.74" cy="65" r="4.62"/>
		</g>
		<g id="XMLID_153_">
			<circle id="XMLID_154_" class="st1" cx="84.38" cy="71.36" r="4.62"/>
		</g>
		<g id="XMLID_151_">
			<circle id="XMLID_152_" class="st1" cx="78.01" cy="77.73" r="4.62"/>
		</g>
		<g id="XMLID_149_">
			<circle id="XMLID_150_" class="st1" cx="71.65" cy="84.09" r="4.62"/>
		</g>
		<g id="XMLID_147_">
			<circle id="XMLID_148_" class="st1" cx="65.28" cy="90.46" r="4.62"/>
		</g>
		<g id="XMLID_145_">
			<circle id="XMLID_146_" class="st1" cx="58.92" cy="96.82" r="4.62"/>
		</g>
	</g>
	<g id="XMLID_119_">
		<g id="XMLID_132_">
			<circle id="XMLID_133_" class="st1" cx="90.74" cy="52.27" r="4.62"/>
		</g>
		<g id="XMLID_130_">
			<circle id="XMLID_131_" class="st1" cx="84.38" cy="58.64" r="4.62"/>
		</g>
		<g id="XMLID_128_">
			<circle id="XMLID_129_" class="st1" cx="78.01" cy="65" r="4.62"/>
		</g>
		<g id="XMLID_126_">
			<circle id="XMLID_127_" class="st1" cx="71.65" cy="71.36" r="4.62"/>
		</g>
		<g id="XMLID_124_">
			<circle id="XMLID_125_" class="st1" cx="65.28" cy="77.73" r="4.62"/>
		</g>
		<g id="XMLID_122_">
			<circle id="XMLID_123_" class="st1" cx="58.92" cy="84.09" r="4.62"/>
		</g>
		<g id="XMLID_120_">
			<circle id="XMLID_121_" class="st1" cx="52.56" cy="90.46" r="4.62"/>
		</g>
	</g>
	<g id="XMLID_97_">
		<g id="XMLID_111_">
			<circle id="XMLID_112_" class="st1" cx="84.38" cy="45.91" r="4.62"/>
		</g>
		<g id="XMLID_109_">
			<circle id="XMLID_110_" class="st1" cx="78.01" cy="52.27" r="4.62"/>
		</g>
		<g id="XMLID_107_">
			<circle id="XMLID_108_" class="st1" cx="71.65" cy="58.64" r="4.62"/>
		</g>
		<g id="XMLID_105_">
			<circle id="XMLID_106_" class="st1" cx="65.28" cy="65" r="4.62"/>
		</g>
		<g id="XMLID_103_">
			<circle id="XMLID_104_" class="st1" cx="58.92" cy="71.36" r="4.62"/>
		</g>
		<g id="XMLID_100_">
			<circle id="XMLID_102_" class="st1" cx="52.56" cy="77.73" r="4.62"/>
		</g>
		<g id="XMLID_98_">
			<circle id="XMLID_99_" class="st1" cx="46.19" cy="84.09" r="4.62"/>
		</g>
	</g>
	<g id="XMLID_76_">
		<g id="XMLID_89_">
			<circle id="XMLID_90_" class="st1" cx="78.01" cy="39.54" r="4.62"/>
		</g>
		<g id="XMLID_87_">
			<circle id="XMLID_88_" class="st1" cx="71.65" cy="45.91" r="4.62"/>
		</g>
		<g id="XMLID_85_">
			<circle id="XMLID_86_" class="st1" cx="65.28" cy="52.27" r="4.62"/>
		</g>
		<g id="XMLID_83_">
			<circle id="XMLID_84_" class="st1" cx="58.92" cy="58.64" r="4.62"/>
		</g>
		<g id="XMLID_81_">
			<circle id="XMLID_82_" class="st1" cx="52.56" cy="65" r="4.62"/>
		</g>
		<g id="XMLID_79_">
			<circle id="XMLID_80_" class="st1" cx="46.19" cy="71.36" r="4.62"/>
		</g>
		<g id="XMLID_77_">
			<circle id="XMLID_78_" class="st1" cx="39.83" cy="77.73" r="4.62"/>
		</g>
	</g>
	<g id="XMLID_55_">
		<g id="XMLID_72_">
			<circle id="XMLID_73_" class="st1" cx="84.38" cy="20.45" r="4.62"/>
		</g>
		<g id="XMLID_70_">
			<circle id="XMLID_71_" class="st1" cx="78.01" cy="26.82" r="4.62"/>
		</g>
		<g id="XMLID_68_">
			<circle id="XMLID_69_" class="st1" cx="71.65" cy="33.18" r="4.62"/>
		</g>
		<g id="XMLID_66_">
			<circle id="XMLID_67_" class="st1" cx="65.28" cy="39.54" r="4.62"/>
		</g>
		<g id="XMLID_64_">
			<circle id="XMLID_65_" class="st1" cx="58.92" cy="45.91" r="4.62"/>
		</g>
		<g id="XMLID_62_">
			<circle id="XMLID_63_" class="st1" cx="52.56" cy="52.27" r="4.62"/>
		</g>
		<g id="XMLID_60_">
			<circle id="XMLID_61_" class="st1" cx="46.19" cy="58.64" r="4.62"/>
		</g>
		<g id="XMLID_58_">
			<circle id="XMLID_59_" class="st1" cx="39.83" cy="65" r="4.62"/>
		</g>
		<g id="XMLID_56_">
			<circle id="XMLID_57_" class="st1" cx="33.46" cy="71.36" r="4.62"/>
		</g>
	</g>
	<g id="XMLID_33_">
		<g id="XMLID_51_">
			<circle id="XMLID_52_" class="st1" cx="78.01" cy="14.09" r="4.62"/>
		</g>
		<g id="XMLID_49_">
			<circle id="XMLID_50_" class="st1" cx="71.65" cy="20.45" r="4.62"/>
		</g>
		<g id="XMLID_47_">
			<circle id="XMLID_48_" class="st1" cx="65.28" cy="26.82" r="4.62"/>
		</g>
		<g id="XMLID_45_">
			<circle id="XMLID_46_" class="st1" cx="58.92" cy="33.18" r="4.62"/>
		</g>
		<g id="XMLID_43_">
			<circle id="XMLID_44_" class="st1" cx="52.56" cy="39.54" r="4.62"/>
		</g>
		<g id="XMLID_41_">
			<circle id="XMLID_42_" class="st1" cx="46.19" cy="45.91" r="4.62"/>
		</g>
		<g id="XMLID_39_">
			<circle id="XMLID_40_" class="st1" cx="39.83" cy="52.27" r="4.62"/>
		</g>
		<g id="XMLID_37_">
			<circle id="XMLID_38_" class="st1" cx="33.46" cy="58.64" r="4.62"/>
		</g>
		<g id="XMLID_35_">
			<circle id="XMLID_36_" class="st1" cx="27.1" cy="65" r="4.62"/>
		</g>
	</g>
</g>
<text id="XMLID_53_" transform="matrix(1.153 0 0 1 204.583 176.2627)" class="st1 st2 st3 st4">SOLUCIONES</text>
<text id="XMLID_32_" transform="matrix(1.096 0 0 1 200.083 116.4658)" class="st0 st5 st6 st7">Metaristics</text>
</svg>
